<svg xmlns="http://www.w3.org/2000/svg" display="none" width="0" height="0"><symbol viewBox="0 0 24 24" id="icon--add"><title>add</title><path d="M19 13h-6v6h-2v-6H5v-2h6V5h2v6h6v2z"/></symbol><symbol viewBox="0 0 24 24" id="icon--arrow-left"><title>arrow-left</title><path d="M20 11H7.8l5.6-5.6h-2.8L4 12l6.6 6.6h2.8L7.8 13H20v-2z"/></symbol><symbol viewBox="0 0 24 24" id="icon--arrow-right"><title>arrow-right</title><path d="M4 13h12.2l-5.6 5.6h2.8L20 12l-6.6-6.6h-2.8l5.6 5.6H4v2z"/></symbol><symbol viewBox="0 0 24 24" id="icon--attachement"><title>attachement</title><path d="M16.5 6v11.5c0 2.2-1.8 4-4 4s-4-1.8-4-4V5c0-1.4 1.1-2.5 2.5-2.5s2.5 1.1 2.5 2.5v10.5c0 .5-.4 1-1 1s-1-.5-1-1V6H10v9.5c0 1.4 1.1 2.5 2.5 2.5s2.5-1.1 2.5-2.5V5c0-2.2-1.8-4-4-4S7 2.8 7 5v12.5c0 3 2.5 5.5 5.5 5.5s5.5-2.5 5.5-5.5V6h-1.5z"/></symbol><symbol viewBox="0 0 24 24" id="icon--cart"><title>cart</title><path d="M7 18c-1.1 0-2 .9-2 2s.9 2 2 2 2-.9 2-2-.9-2-2-2zM1 2v2h2l3.6 7.6L5.2 14c-.1.3-.2.6-.2 1 0 1.1.9 2 2 2h12v-2H7.4c-.1 0-.2-.1-.2-.2v-.1l.9-1.7h7.4c.7 0 1.4-.4 1.7-1l3.6-6.5c.2-.2.2-.3.2-.5 0-.6-.5-1-1-1H5.2l-.9-2H1zm16 16c-1.1 0-2 .9-2 2s.9 2 2 2 2-.9 2-2-.9-2-2-2z"/></symbol><symbol viewBox="0 0 24 24" id="icon--close"><title>close</title><path d="M19 6.4L17.6 5 12 10.6 6.4 5 5 6.4l5.6 5.6L5 17.6 6.4 19l5.6-5.6 5.6 5.6 1.4-1.4-5.6-5.6z"/></symbol><symbol viewBox="0 0 24 24" id="icon--data"><title>data</title><path d="M19 2h-4.2C14.4.8 13.3 0 12 0S9.6.8 9.2 2H5c-1.1 0-2 .9-2 2v16c0 1.1.9 2 2 2h14c1.1 0 2-.9 2-2V4c0-1.1-.9-2-2-2zm-7 0c.6 0 1 .4 1 1s-.4 1-1 1-1-.4-1-1 .4-1 1-1zm7 18H5V4h2v3h10V4h2v16z"/></symbol><symbol viewBox="0 0 24 24" id="icon--disturb"><title>disturb</title><path d="M12 2C6.5 2 2 6.5 2 12s4.5 10 10 10 10-4.5 10-10S17.5 2 12 2zm0 18c-4.4 0-8-3.6-8-8 0-1.9.6-3.6 1.7-4.9l11.2 11.2C15.5 19.4 13.8 20 12 20zm6.3-3.1L7.1 5.7C8.4 4.6 10.1 4 12 4c4.4 0 8 3.6 8 8 0 1.9-.6 3.6-1.7 4.9z"/></symbol><symbol viewBox="0 0 24 24" id="icon--done"><title>done</title><path d="M9 16.2L4.8 12l-1.4 1.4L9 19 21 7l-1.4-1.4L9 16.2z"/></symbol><symbol viewBox="0 0 24 24" id="icon--download"><title>download</title><path d="M21 5h-9.6L9.7 3.3C9.5 3.1 9.3 3 9 3H3c-1.1 0-2 .9-2 2v14c0 1.1.9 2 2 2h18c1.1 0 2-.9 2-2V7c0-1.1-.9-2-2-2zm-9 13l-5-5h3V9h4v4h3l-5 5z"/></symbol><symbol viewBox="0 0 24 24" id="icon--edit"><title>edit</title><path d="M21 10.2c-.3-.7-.6-1.3-1-1.9l-7.4 7.3-1.2 1.9L7.3 19c-.2-.5-.5-.9-.8-1.2-.3-.3-.7-.6-1.2-.8l1.6-4 1.9-1.2 7.4-7.4c-.6-.4-1.2-.7-1.9-1l-8.4 8.4L3 21.4l9.6-2.9 8.4-8.3zM8.8 15.7l1.9-1 8-8c-.3-.3-.6-.7-1-1l-8 8-.9 2z"/></symbol><symbol viewBox="0 0 24 24" id="icon--folder"><title>folder</title><path d="M10.4 4.1h-6c-1.1 0-2 .9-2 2v12c0 1.1.9 2 2 2h16c1.1 0 2-.9 2-2v-10c0-1.1-.9-2-2-2h-8l-2-2z"/></symbol><symbol viewBox="0 0 24 24" id="icon--image"><title>image</title><path d="M19 3H5c-1.1 0-2 .9-2 2v14c0 1.1.9 2 2 2h14c1.1 0 2-.9 2-2V5c0-1.1-.9-2-2-2zm0 16H5V5h14v14zm-5-6.7l-2.8 3.5-2-2.4L6.5 17h11L14 12.3z"/></symbol><symbol viewBox="0 0 24 24" id="icon--item-new"><title>item-new</title><path d="M14 10H2v2h12v-2zm0-4H2v2h12V6zm4 8v-4h-2v4h-4v2h4v4h2v-4h4v-2h-4zM2 16h8v-2H2v2z"/></symbol><symbol viewBox="0 0 24 24" id="icon--link-to"><title>link-to</title><path d="M12 3.9c1.7 0 3.1 1.4 3.1 3.1v4H17V7c0-2.8-2.2-5-5-5S7 4.2 7 7v4h1.9V7c0-1.7 1.4-3.1 3.1-3.1zM11 8v8h2V8h-2zm6 9v-4h-1.9v4c0 1.7-1.4 3.1-3.1 3.1S8.9 18.7 8.9 17v-4H7v4c0 2.8 2.2 5 5 5s5-2.2 5-5z"/></symbol><symbol viewBox="0 0 24 24" id="icon--link"><title>link</title><path d="M3 20c2.5-3.5 6-5.1 11-5.1V19l7-7-7-7v4C7 10 4 15 3 20z"/></symbol><symbol viewBox="0 0 24 24" id="icon--list"><title>list</title><path d="M19 3h-4.2c-.4-1.2-1.5-2-2.8-2s-2.4.8-2.8 2H5c-1.1 0-2 .9-2 2v14c0 1.1.9 2 2 2h14c1.1 0 2-.9 2-2V5c0-1.1-.9-2-2-2zm-7 0c.6 0 1 .4 1 1s-.4 1-1 1-1-.4-1-1 .4-1 1-1zm2 14H7v-2h7v2zm3-4H7v-2h10v2zm0-4H7V7h10v2z"/></symbol><symbol viewBox="0 0 24 24" id="icon--location"><title>location</title><path d="M12 2C8.1 2 5 5.1 5 9c0 5.2 7 13 7 13s7-7.8 7-13c0-3.9-3.1-7-7-7zm0 9.5c-1.4 0-2.5-1.1-2.5-2.5s1.1-2.5 2.5-2.5 2.5 1.1 2.5 2.5-1.1 2.5-2.5 2.5z"/></symbol><symbol viewBox="0 0 24 24" id="icon--menu"><title>menu</title><path d="M3 18h18v-2H3v2zm0-5h18v-2H3v2zm0-7v2h18V6H3z"/></symbol><symbol viewBox="0 0 24 24" id="icon--news"><title>news</title><path d="M20 2H4c-1.1 0-2 .9-2 2v18l4-4h14c1.1 0 2-.9 2-2V4c0-1.1-.9-2-2-2zM6 9h12v2H6V9zm8 5H6v-2h8v2zm4-6H6V6h12v2z"/></symbol><symbol viewBox="0 0 24 24" id="icon--open"><title>open</title><path d="M7 10l5 5 5-5z"/></symbol><symbol viewBox="0 0 24 24" id="icon--order"><title>order</title><path d="M6 7h2.5L5 3.5 1.5 7H4v10H1.5L5 20.5 8.5 17H6V7zm4-2v2h12V5H10zm0 14h12v-2H10v2zm0-6h12v-2H10v2z"/></symbol><symbol viewBox="0 0 24 24" id="icon--page"><title>page</title><path d="M4 8v12c0 1.1.9 2 2 2h12c1.1 0 2-.9 2-2V4c0-1.1-.9-2-2-2h-8L4 8zm1.5 1L11 3.5V9H5.5z"/></symbol><symbol viewBox="0 0 24 24" id="icon--people"><title>people</title><path d="M16.4 12c1.4 0 2.5-1.1 2.5-2.5S17.8 7 16.4 7s-2.5 1.1-2.5 2.5S15 12 16.4 12zm-7.5-1c1.7 0 3-1.3 3-3s-1.3-3-3-3-3 1.3-3 3 1.3 3 3 3zm7.5 3c-1.8 0-5.5.9-5.5 2.8V19h11v-2.2c0-1.9-3.7-2.8-5.5-2.8zm-7.5-1c-2.3 0-7 1.2-7 3.5V19h7v-2.2c0-.9.3-2.3 2.4-3.5-.9-.2-1.8-.3-2.4-.3z"/></symbol><symbol viewBox="0 0 24 24" id="icon--phone"><title>phone</title><path d="M6.6 9.8c1.4 2.8 3.8 5.1 6.6 6.6l2.1-2.1c.2-.2.4-.3.7-.3h4c.6 0 1 .4 1 1v4c0 .6-.4 1-1 1-9.4 0-17-7.6-17-17 0-.6.4-1 1-1h4c.6 0 1 .4 1 1v4c0 .3-.1.5-.3.7L6.6 9.8z"/></symbol><symbol viewBox="0 0 24 24" id="icon--play"><title>play</title><path d="M7.4 18.1l11-6-11-6z"/></symbol><symbol viewBox="0 0 24 24" id="icon--reload"><title>reload</title><path d="M11.7 6v3l4-4-4-4v3c-4.4 0-8 3.6-8 8 0 1.6.5 3 1.2 4.3l1.5-1.5C6 14 5.7 13 5.7 12c0-3.3 2.7-6 6-6zm6.8 1.7L17 9.2c.4.8.7 1.8.7 2.8 0 3.3-2.7 6-6 6v-3l-4 4 4 4v-3c4.4 0 8-3.6 8-8 0-1.6-.4-3-1.2-4.3z"/></symbol><symbol viewBox="0 0 24 24" id="icon--search"><title>search</title><path d="M15.5 14h-.8l-.3-.3c1-1.1 1.6-2.6 1.6-4.2C16 5.9 13.1 3 9.5 3S3 5.9 3 9.5 5.9 16 9.5 16c1.6 0 3.1-.6 4.2-1.6l.3.3v.8l5 5 1.5-1.5-5-5zm-6 0C7 14 5 12 5 9.5S7 5 9.5 5 14 7 14 9.5 12 14 9.5 14z"/></symbol><symbol viewBox="0 0 24 24" id="icon--settings"><title>settings</title><path d="M19.4 13c0-.3.1-.6.1-1s0-.7-.1-1l2.1-1.7c.2-.1.2-.4.1-.6l-2-3.5c-.1-.2-.3-.2-.5-.2l-2.5 1c-.5-.4-1.1-.7-1.7-1l-.4-2.7c0-.1-.3-.3-.5-.3h-4c-.2 0-.5.2-.5.4l-.4 2.7c-.6.2-1.1.6-1.7 1L4.9 5c-.2 0-.4 0-.6.3l-2 3.5c-.1.1 0 .4.2.6L4.6 11c0 .3-.1.6-.1 1s0 .7.1 1l-2.1 1.7c-.2.1-.2.4-.1.6l2 3.5c.1.2.3.2.6.2l2.5-1c.5.4 1.1.7 1.7 1l.4 2.6c0 .2.2.4.5.4h4c.2 0 .5-.2.5-.4L15 19c.6-.3 1.2-.6 1.7-1l2.5 1c.2.1.5 0 .6-.2l2-3.5c.1-.2.1-.5-.1-.6L19.4 13zM12 15.5c-1.9 0-3.5-1.6-3.5-3.5s1.6-3.5 3.5-3.5 3.5 1.6 3.5 3.5-1.6 3.5-3.5 3.5z"/></symbol><symbol viewBox="0 0 24 24" id="icon--show"><title>show</title><path d="M12 4.5C7 4.5 2.7 7.6 1 12c1.7 4.4 6 7.5 11 7.5s9.3-3.1 11-7.5c-1.7-4.4-6-7.5-11-7.5zM12 17c-2.8 0-5-2.2-5-5s2.2-5 5-5 5 2.2 5 5-2.2 5-5 5zm0-8c-1.7 0-3 1.3-3 3s1.3 3 3 3 3-1.3 3-3-1.3-3-3-3z"/></symbol><symbol viewBox="0 0 24 24" id="icon--star"><title>star</title><path d="M12 17.3l6.2 3.7-1.7-7L22 9.2l-7.2-.6L12 2 9.2 8.6 2 9.2 7.5 14l-1.7 7z"/></symbol><symbol viewBox="0 0 24 24" id="icon--trash"><title>trash</title><path d="M6 19c0 1.1.9 2 2 2h8c1.1 0 2-.9 2-2V7H6v12zM18 4h-2.5l-1-1h-5l-1 1H6c-.6 0-1 .4-1 1v1h14V5c0-.6-.4-1-1-1z"/></symbol><symbol viewBox="0 0 24 24" id="icon--upload"><title>upload</title><path d="M5 4v2h14V4H5zm0 10h4v6h6v-6h4l-7-7-7 7z"/></symbol></svg>